<?xml version="1.0" standalone="no"?><!DOCTYPE svg PUBLIC "-//W3C//DTD SVG 1.1//EN" "http://www.w3.org/Graphics/SVG/1.1/DTD/svg11.dtd"><svg t="1512356109290" class="icon" style="" viewBox="0 0 1024 1024" version="1.1" xmlns="http://www.w3.org/2000/svg" p-id="4696" xmlns:xlink="http://www.w3.org/1999/xlink" width="32" height="32"><defs><style type="text/css"></style></defs><path d="M515.318 153.843c-197.256 0-357.164 159.908-357.164 357.164s159.908 357.165 357.164 357.165 357.164-159.908 357.164-357.165-159.907-357.164-357.164-357.164z m0 651.938c-162.799 0-294.773-131.975-294.773-294.774S352.52 216.234 515.318 216.234s294.773 131.975 294.773 294.773-131.974 294.774-294.773 294.774z" p-id="4697" fill="#d81e06"></path><path d="M363.001 428.431c-45.606 0-82.577 36.971-82.577 82.577s36.971 82.577 82.577 82.577 82.577-36.971 82.577-82.577-36.971-82.577-82.577-82.577z m0 137.176c-30.154 0-54.599-24.445-54.599-54.599 0-30.154 24.445-54.599 54.599-54.599 30.154 0 54.599 24.445 54.599 54.599 0 30.154-24.445 54.599-54.599 54.599zM557.501 267.793c-28.269 0-51.185 22.916-51.185 51.185s22.916 51.185 51.185 51.185 51.185-22.916 51.185-51.185-22.916-51.185-51.185-51.185z m0 64.092c-7.128 0-12.907-5.779-12.907-12.907s5.779-12.907 12.907-12.907 12.907 5.779 12.907 12.907c0 7.129-5.778 12.907-12.907 12.907zM588.646 460.822c-17.816 0-32.259 14.443-32.259 32.258 0 17.816 14.443 32.258 32.259 32.258 17.816 0 32.258-14.443 32.258-32.258 0.001-17.815-14.442-32.258-32.258-32.258z" p-id="4698" fill="#d81e06"></path><path d="M955.359 452.567c-7-29.905-44.791-50.231-103.152-60.284a360.15 360.15 0 0 1 10.188 34.444c28.254 7.795 45.875 19.814 49.658 35.976 13.506 57.699-154.406 146.341-375.042 197.989-220.636 51.647-410.446 46.742-423.953-10.957-4.925-21.039 14.276-46.191 51.353-72.165a359.887 359.887 0 0 1-4.868-34.723C94.77 583.477 59.4 625.404 67.587 660.38c17.636 75.339 230.667 89.893 475.818 32.507s429.589-164.98 411.954-240.32z" p-id="4699" fill="#d81e06"></path></svg>