<?xml version="1.0" standalone="no"?><!DOCTYPE svg PUBLIC "-//W3C//DTD SVG 1.1//EN" "http://www.w3.org/Graphics/SVG/1.1/DTD/svg11.dtd"><svg t="1512356177299" class="icon" style="" viewBox="0 0 1024 1024" version="1.1" xmlns="http://www.w3.org/2000/svg" p-id="5527" xmlns:xlink="http://www.w3.org/1999/xlink" width="32" height="32"><defs><style type="text/css"></style></defs><path d="M41.856308 599.89873H990.307064a2320.995103 2320.995103 0 0 1-9.813031 232.09951 796.98876 796.98876 0 0 1-40.532084 130.555975 131.409282 131.409282 0 0 1-95.99704 40.10543c-104.103457 11.519645-280.738011 0-373.321822 0a2231.397865 2231.397865 0 0 1-274.338208 0 242.765848 242.765848 0 0 1-105.810071-40.10543 421.960323 421.960323 0 0 1-38.82547-109.223299c-10.239684-74.664365-9.813031-253.432186-9.81303-253.432186z" fill="#d81e06" p-id="5528"></path><path d="M812.392549 1023.99232H210.811098a188.580852 188.580852 0 0 1-190.287466-188.154198V352.439693a186.874238 186.874238 0 0 1 42.665351-127.996053 159.14176 159.14176 0 0 1 122.876212-51.198422h84.477395V117.353608A103.676803 103.676803 0 0 1 317.047823 28.609678a177.061207 177.061207 0 0 1 99.410268-28.585785h190.287466c85.330702 0 145.915501 46.505233 145.915501 116.049755v58.024877h81.917474a159.14176 159.14176 0 0 1 124.582825 51.198422 187.727545 187.727545 0 0 1 42.665352 127.996053v482.971775a188.580852 188.580852 0 0 1-189.43416 187.727545zM188.625116 208.65746C105.854334 208.65746 56.789181 263.695763 56.789181 352.439693v483.398429a154.021918 154.021918 0 0 0 154.448571 153.16861h601.581451a154.021918 154.021918 0 0 0 154.448571-153.16861V352.439693c0-88.74393-50.345114-143.782233-131.835935-143.782233h-116.903062V117.353608c0-60.158145-58.024878-81.917474-111.356567-81.917474H416.458091a140.795659 140.795659 0 0 0-79.784207 21.332676 69.544522 69.544522 0 0 0-31.57236 60.584798v91.303852z" fill="#d81e06" p-id="5529"></path><path d="M536.774381 826.025091H486.85592a66.984601 66.984601 0 0 1-66.984601-66.557948v-57.17157H361.846441a66.984601 66.984601 0 0 1-66.131294-66.557948v-49.491808a66.984601 66.984601 0 0 1 66.131294-66.557947h58.024878v-56.744917a66.984601 66.984601 0 0 1 66.984601-66.557948h49.918461a66.984601 66.984601 0 0 1 66.984601 66.557948v56.744917h56.744917a66.984601 66.984601 0 0 1 66.984602 66.557947v49.491808a66.984601 66.984601 0 0 1-66.984602 66.557948h-56.744917v56.744917a66.984601 66.984601 0 0 1-66.984601 66.557947z m-174.92794-271.351633a31.999013 31.999013 0 0 0-32.425667 31.999013v49.065154a31.999013 31.999013 0 0 0 32.425667 31.999013h91.730505v91.303852a31.999013 31.999013 0 0 0 32.425667 31.999013h50.771768a31.999013 31.999013 0 0 0 32.425667-31.999013v-91.303852h91.303851a31.999013 31.999013 0 0 0 32.425667-31.999013v-49.491808a31.999013 31.999013 0 0 0-32.425667-31.572359h-91.303851v-91.730505a31.999013 31.999013 0 0 0-32.425667-31.999014H486.85592a31.999013 31.999013 0 0 0-32.425667 31.999014v91.730505zM263.28948 174.098525h497.051341v34.558935H263.28948z" fill="#d81e06" p-id="5530"></path></svg>