<?xml version="1.0" standalone="no"?><!DOCTYPE svg PUBLIC "-//W3C//DTD SVG 1.1//EN" "http://www.w3.org/Graphics/SVG/1.1/DTD/svg11.dtd"><svg t="1512355465077" class="icon" style="" viewBox="0 0 1024 1024" version="1.1" xmlns="http://www.w3.org/2000/svg" p-id="2383" xmlns:xlink="http://www.w3.org/1999/xlink" width="200" height="200"><defs><style type="text/css"></style></defs><path d="M239.9 877.6c-4.2-0.9-8.5-1.7-12.7-2.9-32.4-9.1-54.8-38.3-54.9-72-0.1-40.3 0-80.6 0-121 0-6.8 4.8-12.7 11.6-14.2 6.5-1.5 13.6 1.8 16.2 8 1.3 3 2.2 6.5 2.2 9.7 0.1 38.4 0.1 76.9 0.1 115.3 0 27.6 19.4 47 47.1 47h520.3c28.1 0 47.3-19.3 47.3-47.5 0-91.4 0-182.8 0.1-274.3 0-3.5-0.9-5.9-3.6-8.4-34.6-31.2-69.1-62.5-103.7-93.7-1.5-1.3-2.9-2.8-4.1-4.3-5.1-6-4.8-14.3 0.5-19.8 5.4-5.6 14-6.1 20.1-0.8 13.9 12.2 27.7 24.5 41.5 36.9 27.1 24.4 54 48.9 81.1 73.3 3.8 3.4 7.8 6.6 9.5 11.7v6.8c-2.5 3.1-4.5 7.1-7.7 9.2-3 1.9-3.6 3.6-3.6 6.6 0.1 86.1 0.1 172.3 0 258.4 0 34.9-22.4 64.4-55.6 73.3-3.9 1.1-8 1.8-12 2.6-180 0.1-359.8 0.1-539.7 0.1zM157.3 523.7c3.1-3.9 5.7-8.2 9.3-11.5C271.5 417.1 376.5 322.1 481.5 227.1c5.9-5.4 11.7-11 17.7-16.3 2-1.8 4.6-2.9 6.9-4.3h6.8c4.2 3.2 8.6 6.2 12.6 9.8 28.1 25.3 56.1 50.7 84.2 76.1 1.5 1.3 2.9 2.7 4.3 4.2 5.5 5.9 5.6 14.3 0.4 20.1-5.1 5.7-13.6 6.8-19.7 1.7-11-9.2-21.7-18.8-32.4-28.4-16.8-15.1-33.4-30.2-50.2-45.4-0.7-0.7-1.5-1.3-2.5-2.2-1 0.9-2.1 1.8-3 2.7-100.5 90.6-200.7 181.3-300.9 271.9-2.4 2.2-3.5 4.3-3.5 7.7 0.1 31.1 0.2 62.1 0 93.2 0 3.4-1 6.9-2.5 10-2.8 6-9.7 9-16.1 7.4-6.8-1.6-11.3-7.3-11.3-14.5v-68-10.9c-7.7-0.3-12.3-4.6-15.1-11.4 0.1-2.3 0.1-4.6 0.1-6.8zM636.9 321.5c3.4 1.7 7.4 2.7 10.1 5.1 15.2 13.4 30.2 27.1 45.2 40.7 6.2 5.7 7.1 14.8 2 21-5.2 6.4-14.2 7.5-20.8 1.8-15.2-13.2-30.2-26.7-45.2-40.2-2.1-1.9-3.9-4.3-5.1-6.8-4.7-9.7 2.6-20.9 13.8-21.6z" fill="#13227a" p-id="2384"></path><path d="M203 807.3V518.6c1.8-1.4 3.6-2.7 5.2-4.2 12.5-11.2 24.9-22.5 37.3-33.8 86.9-78.8 173.9-157.6 260.8-236.4 1-0.9 1.7-2 2.6-3h1.5c0.8 0.9 1.4 2 2.3 2.8 49 44.4 98.1 88.8 147.1 133.1 51.8 46.9 103.7 93.8 155.4 140.8 1.3 1.2 2.5 3.3 2.5 4.9 0.1 93.7 0.2 187.4 0.1 281.1 0 22.9-21 43.3-43.9 43.3-162.5 0-325 0-487.4-0.1-13.2 0-26.3 0.4-39.5 0-19.5-0.6-34.5-11.9-41.1-30.3-0.9-3.1-1.9-6.3-2.9-9.5z" fill="#13227a" p-id="2385"></path><path d="M510.8 241.4c0.9 1 1.6 2.1 2.6 3 59.5 53.8 119 107.7 178.5 161.5 41.7 37.7 83.4 75.5 125 113.3 1.2 1.1 1.9 3.2 1.9 4.8 0.2 37.3 0.3 74.6 0.5 111.9 0 1.6 0.3 3.2 0.5 4.8v72.3c-0.2 8.1-0.5 16.3-0.6 24.4-0.2 21 0 41.9-0.5 62.9-0.2 6.7-1 13.6-3.3 19.9-6.1 16.8-19.7 24.6-36.5 27.5-3.9 0.7-7.9 0.8-12.5 1.2v-5.2c0.7-73.4 1.5-146.9 2.2-220.3 0.3-24.7 0.4-49.5 0.8-74.2 0-2.9-0.7-4.8-2.9-6.8-37.6-32.9-75.1-65.9-112.7-98.8-42.2-37-84.3-74-126.5-111-19-16.6-37.9-33.3-56.9-49.9-0.7-0.6-1.6-1-2.5-1.4v-1.5c0.7-0.4 1.6-0.7 2.2-1.3l38.1-35.4c0.5-0.5 0.8-1.2 1.2-1.8 0.4 0.1 0.9 0.1 1.4 0.1z" fill="#13227a" p-id="2386"></path></svg>